<svg xmlns="http://www.w3.org/2000/svg" version="1.1" xmlns:xlink="http://www.w3.org/1999/xlink" xmlns:svgjs="http://svgjs.dev/svgjs" width="600" height="600" viewBox="0 0 2000 1500"><rect width="2000" height="1500" fill="#0f121d"></rect><g transform="matrix(0.75,0,0,0.75,249.090909090909,574.7578086139787)"><svg viewBox="0 0 396 93" data-background-color="#0f121d" preserveAspectRatio="xMidYMid meet" height="469" width="2000" xmlns="http://www.w3.org/2000/svg" xmlns:xlink="http://www.w3.org/1999/xlink"><g id="tight-bounds" transform="matrix(1,0,0,1,0.2400000000000091,-0.1673097401564121)"><svg viewBox="0 0 395.52 93.33461948031282" height="93.33461948031282" width="395.52"><g><svg viewBox="0 0 651.513342459684 153.74380538233552" height="93.33461948031282" width="395.52"><g transform="matrix(1,0,0,1,0,21.248239383521053)"><svg viewBox="0 0 395.52 111.24732661529342" height="111.24732661529342" width="395.52"><g id="textblocktransform"><svg viewBox="0 0 395.52 111.24732661529342" height="111.24732661529342" width="395.52" id="textblock"><g><svg viewBox="0 0 395.52 111.24732661529342" height="111.24732661529342" width="395.52"><g transform="matrix(1,0,0,1,0,0)"><svg width="395.52" viewBox="4.2 -38 168.68 47.45" height="111.24732661529342" data-palette-color="#ca0987"><path d="M10.65 0L4.2 0 4.2-34.85 13.55-34.85Q17.1-34.85 20-33.77 22.9-32.7 24.63-30.04 26.35-27.38 26.35-22.65L26.35-22.65Q26.35-19.23 25.05-16.19 23.75-13.15 20.96-11.25 18.18-9.35 13.75-9.35L13.75-9.35 10.65-9.35 10.65 0ZM13.15-29.8L13.15-29.8 10.65-29.8 10.65-14.6 13.3-14.6Q16.6-14.6 18.25-16.57 19.9-18.55 19.9-22.3L19.9-22.3Q19.9-26.13 18.4-27.96 16.9-29.8 13.15-29.8ZM37.25 0L31.15 0 31.15-38 37.25-38 37.25 0ZM49 0.7L49 0.7Q46.7 0.7 45.18-0.33 43.67-1.35 42.93-3.05 42.2-4.75 42.2-6.8L42.2-6.8Q42.2-7.95 42.78-9.33 43.37-10.7 44.87-11.95 46.37-13.2 49.09-14 51.82-14.8 56.09-14.8L56.09-14.8 56.09-15.95Q56.09-17.8 55.21-19.03 54.32-20.25 51.65-20.25L51.65-20.25Q49.7-20.25 47.83-19.59 45.97-18.93 45.09-17.95L45.09-17.95 43.09-22.75Q44.59-23.78 47.11-24.64 49.62-25.5 52.7-25.5L52.7-25.5Q56.4-25.5 58.45-24.38 60.5-23.25 61.32-21.19 62.15-19.13 62.15-16.35L62.15-16.35 62.15 0 56.8 0 56.34-3.55Q53.75 0.7 49 0.7ZM51.65-4.1L51.65-4.1Q52.77-4.1 54.06-5.01 55.34-5.93 56.09-7.35L56.09-7.35 56.09-10.9Q55.84-10.95 55.56-10.95 55.27-10.95 54.9-10.95L54.9-10.95Q53.52-10.95 52.01-10.64 50.5-10.33 49.45-9.55 48.4-8.78 48.4-7.4L48.4-7.4Q48.4-5.6 49.2-4.85 50-4.1 51.65-4.1ZM75.29 9.45L69.14 9.45 73.19-1.7 63.84-24.9 70.79-24.9 74.49-13.8 76.09-8.05 77.69-13.8 81.44-24.9 87.99-24.9 75.29 9.45ZM98.39 0L91.99 0 91.99-34.85 110.19-34.85 110.19-29.35 98.39-29.35 98.39-20.2 108.69-20.2 108.69-14.6 98.39-14.6 98.39 0ZM120.89 0L114.79 0 114.79-38 120.89-38 120.89 0ZM137.49 0.65L137.49 0.65Q133.29 0.65 130.71-1.11 128.14-2.88 126.96-5.79 125.79-8.7 125.79-12.15L125.79-12.15Q125.79-15.78 127.12-18.81 128.46-21.85 131.05-23.68 133.64-25.5 137.39-25.5L137.39-25.5Q142.99-25.5 145.21-22.26 147.44-19.03 147.44-13.1L147.44-13.1Q147.44-12.58 147.41-11.78 147.39-10.98 147.34-10.4L147.34-10.4 132.34-10.4Q132.49-7.45 134-5.78 135.51-4.1 138.54-4.1L138.54-4.1Q140.09-4.1 141.86-4.79 143.64-5.48 144.49-6.45L144.49-6.45 146.49-1.7Q145.49-1.03 143.32-0.19 141.16 0.65 137.49 0.65ZM132.29-14.3L132.29-14.3 141.09-14.3Q141.09-16.93 140.62-18.31 140.16-19.7 139.36-20.23 138.56-20.75 137.54-20.75L137.54-20.75Q134.99-20.75 133.71-18.86 132.44-16.98 132.29-14.3ZM157.13 0L150.23 0 155.38-9.2 157.23-12.25 155.33-15.45 150.23-24.9 157.33-24.9 160.33-18.6 161.58-15.7 162.88-18.6 165.83-24.9 172.48-24.9 167.48-15.65 165.68-12.5 167.48-9.5 172.88 0 165.83 0 162.23-6.7 161.13-8.95 160.23-6.7 157.13 0Z" opacity="1" transform="matrix(1,0,0,1,0,0)" fill="#ca0987" class="wordmark-text-0" data-fill-palette-color="primary" id="text-0"></path></svg></g></svg></g></svg></g></svg></g><g transform="matrix(1,0,0,1,421.782823878032,0)"><svg viewBox="0 0 229.730518581652 153.74380538233552" height="153.74380538233552" width="229.730518581652"><g><svg xmlns="http://www.w3.org/2000/svg" xmlns:xlink="http://www.w3.org/1999/xlink" version="1.1" x="0" y="0" viewBox="0.625 18.457 98.75 66.08699999999999" enable-background="new 0 0 100 100" xml:space="preserve" height="153.74380538233552" width="229.730518581652" class="icon-icon-0" data-fill-palette-color="accent" id="icon-0"><path fill="#ca0987" d="M91.25 24.75c-7.875-6-25.375-6.293-41.25-6.293v0c-15.875 0-33.375 0.293-41.25 6.293s-8.125 19-8.125 26.75 0.25 20.75 8.125 26.75S34.125 84.544 50 84.544v-0.001c15.875 0 33.375-0.293 41.25-6.293s8.125-19 8.125-26.75S99.125 30.75 91.25 24.75zM65.646 53.248l0.003 0.004L38.823 67.548c-0.144 0.104-0.301 0.187-0.47 0.251l-0.033 0.018-0.002-0.007c-0.217 0.078-0.448 0.128-0.692 0.128-1.139 0-2.062-0.924-2.062-2.062V37.062c0-1.139 0.924-2.062 2.062-2.062 0.321 0 0.622 0.08 0.893 0.211l0.001-0.001 27.129 14.542-0.001 0.002c0.585 0.364 0.978 1.008 0.978 1.747C66.625 52.24 66.231 52.884 65.646 53.248z" data-fill-palette-color="accent"></path></svg></g></svg></g></svg></g><defs></defs></svg><rect width="395.52" height="93.33461948031282" fill="none" stroke="none" visibility="hidden"></rect></g></svg></g></svg>