<svg xmlns="http://www.w3.org/2000/svg" version="1.1" xmlns:xlink="http://www.w3.org/1999/xlink" xmlns:svgjs="http://svgjs.dev/svgjs" width="2000" height="2000" viewBox="0 0 2000 2000"><g transform="matrix(1,0,0,1,0,0)"><svg viewBox="0 0 280 280" data-background-color="#0f121d" preserveAspectRatio="xMidYMid meet" height="2000" width="2000" xmlns="http://www.w3.org/2000/svg" xmlns:xlink="http://www.w3.org/1999/xlink"><g id="tight-bounds" transform="matrix(1,0,0,1,0,0)"><svg viewBox="0 0 280 280" height="280" width="280"><g><svg viewBox="0 0 280 280" height="280" width="280"><g transform="matrix(1,0,0,1,60.80404050710668,121.31137554700783)"><svg viewBox="0 0 158.39191898578665 37.37724890598436" height="37.37724890598436" width="158.39191898578665"><g><svg viewBox="0 0 260.9082942886158 61.569013872080895" height="37.37724890598436" width="158.39191898578665"><g transform="matrix(1,0,0,1,0,8.509176302147218)"><svg viewBox="0 0 158.39191898578665 44.55066126778646" height="44.55066126778646" width="158.39191898578665"><g id="textblocktransform"><svg viewBox="0 0 158.39191898578665 44.55066126778646" height="44.55066126778646" width="158.39191898578665" id="textblock"><g><svg viewBox="0 0 158.39191898578665 44.55066126778646" height="44.55066126778646" width="158.39191898578665"><g transform="matrix(1,0,0,1,0,0)"><svg width="158.39191898578665" viewBox="4.2 -38 168.68 47.45" height="44.55066126778646" data-palette-color="#ca0987"><path d="M10.65 0L4.2 0 4.2-34.85 13.55-34.85Q17.1-34.85 20-33.77 22.9-32.7 24.63-30.04 26.35-27.38 26.35-22.65L26.35-22.65Q26.35-19.23 25.05-16.19 23.75-13.15 20.96-11.25 18.18-9.35 13.75-9.35L13.75-9.35 10.65-9.35 10.65 0ZM13.15-29.8L13.15-29.8 10.65-29.8 10.65-14.6 13.3-14.6Q16.6-14.6 18.25-16.57 19.9-18.55 19.9-22.3L19.9-22.3Q19.9-26.13 18.4-27.96 16.9-29.8 13.15-29.8ZM37.25 0L31.15 0 31.15-38 37.25-38 37.25 0ZM49 0.7L49 0.7Q46.7 0.7 45.18-0.33 43.67-1.35 42.93-3.05 42.2-4.75 42.2-6.8L42.2-6.8Q42.2-7.95 42.78-9.33 43.37-10.7 44.87-11.95 46.37-13.2 49.09-14 51.82-14.8 56.09-14.8L56.09-14.8 56.09-15.95Q56.09-17.8 55.21-19.03 54.32-20.25 51.65-20.25L51.65-20.25Q49.7-20.25 47.83-19.59 45.97-18.93 45.09-17.95L45.09-17.95 43.09-22.75Q44.59-23.78 47.11-24.64 49.62-25.5 52.7-25.5L52.7-25.5Q56.4-25.5 58.45-24.38 60.5-23.25 61.32-21.19 62.15-19.13 62.15-16.35L62.15-16.35 62.15 0 56.8 0 56.34-3.55Q53.75 0.7 49 0.7ZM51.65-4.1L51.65-4.1Q52.77-4.1 54.06-5.01 55.34-5.93 56.09-7.35L56.09-7.35 56.09-10.9Q55.84-10.95 55.56-10.95 55.27-10.95 54.9-10.95L54.9-10.95Q53.52-10.95 52.01-10.64 50.5-10.33 49.45-9.55 48.4-8.78 48.4-7.4L48.4-7.4Q48.4-5.6 49.2-4.85 50-4.1 51.65-4.1ZM75.29 9.45L69.14 9.45 73.19-1.7 63.84-24.9 70.79-24.9 74.49-13.8 76.09-8.05 77.69-13.8 81.44-24.9 87.99-24.9 75.29 9.45ZM98.39 0L91.99 0 91.99-34.85 110.19-34.85 110.19-29.35 98.39-29.35 98.39-20.2 108.69-20.2 108.69-14.6 98.39-14.6 98.39 0ZM120.89 0L114.79 0 114.79-38 120.89-38 120.89 0ZM137.49 0.65L137.49 0.65Q133.29 0.65 130.71-1.11 128.14-2.88 126.96-5.79 125.79-8.7 125.79-12.15L125.79-12.15Q125.79-15.78 127.12-18.81 128.46-21.85 131.05-23.68 133.64-25.5 137.39-25.5L137.39-25.5Q142.99-25.5 145.21-22.26 147.44-19.03 147.44-13.1L147.44-13.1Q147.44-12.58 147.41-11.78 147.39-10.98 147.34-10.4L147.34-10.4 132.34-10.4Q132.49-7.45 134-5.78 135.51-4.1 138.54-4.1L138.54-4.1Q140.09-4.1 141.86-4.79 143.64-5.48 144.49-6.45L144.49-6.45 146.49-1.7Q145.49-1.03 143.32-0.19 141.16 0.65 137.49 0.65ZM132.29-14.3L132.29-14.3 141.09-14.3Q141.09-16.93 140.62-18.31 140.16-19.7 139.36-20.23 138.56-20.75 137.54-20.75L137.54-20.75Q134.99-20.75 133.71-18.86 132.44-16.98 132.29-14.3ZM157.13 0L150.23 0 155.38-9.2 157.23-12.25 155.33-15.45 150.23-24.9 157.33-24.9 160.33-18.6 161.58-15.7 162.88-18.6 165.83-24.9 172.48-24.9 167.48-15.65 165.68-12.5 167.48-9.5 172.88 0 165.83 0 162.23-6.7 161.13-8.95 160.23-6.7 157.13 0Z" opacity="1" transform="matrix(1,0,0,1,0,0)" fill="#ca0987" class="wordmark-text-0" data-fill-palette-color="primary" id="text-0"></path></svg></g></svg></g></svg></g></svg></g><g transform="matrix(1,0,0,1,168.9092608952406,0)"><svg viewBox="0 0 91.99903339337524 61.569013872080895" height="61.569013872080895" width="91.99903339337524"><g><svg xmlns="http://www.w3.org/2000/svg" xmlns:xlink="http://www.w3.org/1999/xlink" version="1.1" x="0" y="0" viewBox="0.625 18.457 98.75 66.08699999999999" enable-background="new 0 0 100 100" xml:space="preserve" height="61.569013872080895" width="91.99903339337524" class="icon-icon-0" data-fill-palette-color="accent" id="icon-0"><path fill="#ca0987" d="M91.25 24.75c-7.875-6-25.375-6.293-41.25-6.293v0c-15.875 0-33.375 0.293-41.25 6.293s-8.125 19-8.125 26.75 0.25 20.75 8.125 26.75S34.125 84.544 50 84.544v-0.001c15.875 0 33.375-0.293 41.25-6.293s8.125-19 8.125-26.75S99.125 30.75 91.25 24.75zM65.646 53.248l0.003 0.004L38.823 67.548c-0.144 0.104-0.301 0.187-0.47 0.251l-0.033 0.018-0.002-0.007c-0.217 0.078-0.448 0.128-0.692 0.128-1.139 0-2.062-0.924-2.062-2.062V37.062c0-1.139 0.924-2.062 2.062-2.062 0.321 0 0.622 0.08 0.893 0.211l0.001-0.001 27.129 14.542-0.001 0.002c0.585 0.364 0.978 1.008 0.978 1.747C66.625 52.24 66.231 52.884 65.646 53.248z" data-fill-palette-color="accent"></path></svg></g></svg></g></svg></g></svg></g><g id="text-0"><path d="M32.242 103.423l-1.601 4.731-25.59-8.656 2.32-6.86c0.589-1.741 1.387-3.232 2.394-4.473 1.007-1.241 2.306-2.062 3.899-2.462 1.586-0.403 3.535-0.213 5.847 0.569v0c1.679 0.568 3.153 1.419 4.42 2.551 1.271 1.141 2.141 2.551 2.61 4.229 0.468 1.678 0.336 3.601-0.398 5.77v0l-0.771 2.277zM10.983 94.181v0l-0.623 1.84 11.164 3.777 0.657-1.943c0.547-1.617 0.474-2.992-0.22-4.125-0.692-1.139-1.955-2.018-3.79-2.639v0c-1.871-0.633-3.384-0.734-4.539-0.302-1.146 0.427-2.029 1.558-2.649 3.392z" fill="#ca0987" data-fill-palette-color="accent"></path><path d="M53.639 65.033l-2.918 3.722-23.177-18.167 2.918-3.723z" fill="#ca0987" data-fill-palette-color="accent"></path><path d="M78.743 44.355v0c-1.001 0.632-1.975 0.934-2.922 0.906-0.941-0.032-1.809-0.316-2.603-0.851-0.789-0.538-1.466-1.256-2.033-2.152v0c-0.318-0.503-0.54-1.137-0.666-1.9-0.117-0.762-0.023-1.622 0.284-2.582 0.312-0.963 0.953-1.995 1.922-3.095 0.969-1.1 2.388-2.24 4.258-3.42v0l-0.477-0.755c-0.51-0.807-1.128-1.357-1.855-1.649-0.723-0.286-1.67-0.059-2.842 0.681v0c-0.852 0.538-1.593 1.208-2.225 2.009-0.631 0.801-1.003 1.535-1.116 2.202v0l-3.297-2.316c0.375-0.864 0.992-1.83 1.849-2.898 0.863-1.071 1.964-2.03 3.302-2.875v0c1.621-1.024 3.034-1.572 4.242-1.646 1.201-0.07 2.269 0.23 3.204 0.901 0.925 0.669 1.773 1.612 2.541 2.828v0l6.765 10.711-3.509 2.217-1.758-2.14c0.031 2.573-0.99 4.514-3.064 5.824zM78.491 40.116v0c0.492-0.311 0.895-0.844 1.207-1.599 0.313-0.755 0.435-1.547 0.366-2.378v0l-1.467-2.323c-0.125 0.048-0.248 0.11-0.37 0.187-0.127 0.08-0.274 0.173-0.439 0.278v0c-0.597 0.377-1.184 0.845-1.761 1.402-0.574 0.548-0.983 1.139-1.225 1.772-0.246 0.627-0.178 1.242 0.202 1.845v0c0.496 0.785 1.021 1.231 1.576 1.338 0.555 0.106 1.191-0.068 1.911-0.522z" fill="#ca0987" data-fill-palette-color="accent"></path><path d="M119.994 35.121l-4.689 0.868 1.516-9.063-10.404-16.366 5.297-0.981 4.384 7.941 2.036 4.154 0.405-4.606 1.29-8.991 4.998-0.925z" fill="#ca0987" data-fill-palette-color="accent"></path><path d="M159.803 27.461l-4.889-0.809 4.412-26.652 13.911 2.303-0.697 4.211-9.023-1.493-1.158 6.999 7.88 1.304-0.708 4.279-7.88-1.304z" fill="#ca0987" data-fill-palette-color="accent"></path><path d="M198.318 41.439l-4.174-2.224 13.847-25.989 4.174 2.224z" fill="#ca0987" data-fill-palette-color="accent"></path><path d="M225.564 65.306v0c-1.457-1.611-2.293-3.214-2.509-4.809-0.221-1.6 0.025-3.127 0.737-4.583 0.708-1.46 1.724-2.79 3.049-3.987v0c1.388-1.255 2.896-2.152 4.526-2.691 1.625-0.544 3.237-0.634 4.835-0.271 1.594 0.358 3.04 1.255 4.339 2.691v0c1.939 2.145 2.674 4.206 2.204 6.183-0.465 1.973-1.833 3.986-4.103 6.04v0c-0.204 0.184-0.463 0.41-0.778 0.676-0.314 0.267-0.592 0.491-0.833 0.674v0l-7.799-8.624c-1.078 1.081-1.674 2.202-1.788 3.363-0.118 1.157 0.347 2.315 1.396 3.474v0c0.535 0.592 1.243 1.112 2.124 1.559 0.876 0.442 1.648 0.657 2.316 0.644v0l-1.69 3.618c-0.604-0.151-1.441-0.496-2.511-1.036-1.071-0.54-2.242-1.514-3.515-2.921zM231.447 54.548v0l4.575 5.058c1.009-0.913 1.699-1.696 2.07-2.348 0.371-0.662 0.518-1.236 0.441-1.722-0.073-0.49-0.287-0.931-0.642-1.324v0c-0.882-0.975-1.906-1.381-3.073-1.217-1.166 0.164-2.29 0.682-3.371 1.553z" fill="#ca0987" data-fill-palette-color="accent"></path><path d="M245.756 97.585l-1.843-5.02 8.073 1.29 2.714 0.53 1.814-2.234 5.518-6.239 1.897 5.168-3.785 3.867-1.775 1.687 2.458 0.174 5.375 0.462 1.776 4.836-8.07-1.166-2.774-0.466-1.702 2.11-5.468 6.461-1.881-5.122 3.909-4.415 1.346-1.403-1.88-0.052z" fill="#ca0987" data-fill-palette-color="accent"></path><path d="M13.554 184.183l-1.742-5.067 27.375-9.413 2.524 7.341c0.64 1.862 0.94 3.648 0.898 5.357-0.04 1.715-0.6 3.264-1.682 4.645-1.088 1.384-2.869 2.501-5.343 3.353v0c-1.794 0.617-3.603 0.858-5.427 0.724-1.824-0.134-3.485-0.759-4.983-1.877-1.492-1.12-2.637-2.839-3.434-5.159v0l-0.836-2.431zM37.64 178.091v0l-0.673-1.958-11.943 4.106 0.715 2.079c0.593 1.726 1.556 2.844 2.886 3.355 1.331 0.511 2.98 0.428 4.948-0.248v0c2.004-0.689 3.351-1.591 4.039-2.707 0.695-1.117 0.704-2.66 0.028-4.627z" fill="#ca0987" data-fill-palette-color="accent"></path><path d="M38.347 228.436l-3.133-3.978 24.799-19.533 3.133 3.978z" fill="#ca0987" data-fill-palette-color="accent"></path><path d="M67.423 254.02v0c-1.073-0.678-1.811-1.481-2.215-2.41-0.407-0.923-0.534-1.893-0.379-2.909 0.16-1.013 0.544-2.001 1.152-2.963v0c0.339-0.536 0.849-1.038 1.531-1.505 0.68-0.476 1.556-0.785 2.629-0.928 1.069-0.137 2.361 0.01 3.877 0.441 1.515 0.431 3.274 1.279 5.276 2.544v0l0.508-0.805c0.549-0.868 0.794-1.723 0.737-2.563-0.055-0.832-0.707-1.642-1.957-2.432v0c-0.913-0.577-1.904-0.986-2.973-1.228-1.07-0.242-1.952-0.266-2.648-0.071v0l0.726-4.254c1.006-0.037 2.226 0.114 3.659 0.454 1.428 0.337 2.863 0.961 4.307 1.874v0c1.731 1.094 2.907 2.208 3.528 3.343 0.63 1.133 0.835 2.304 0.615 3.511-0.224 1.212-0.747 2.469-1.568 3.768v0l-7.254 11.482-3.758-2.375 1.262-2.696c-2.475 1.222-4.826 1.13-7.055-0.278zM71.418 251.831v0c0.525 0.332 1.224 0.475 2.096 0.43 0.875-0.051 1.7-0.296 2.473-0.736v0l1.577-2.497c-0.108-0.099-0.228-0.19-0.361-0.274-0.133-0.084-0.288-0.182-0.464-0.294v0c-0.642-0.405-1.362-0.76-2.161-1.063-0.808-0.301-1.57-0.423-2.287-0.366-0.719 0.049-1.283 0.396-1.692 1.044v0c-0.531 0.841-0.721 1.552-0.571 2.135 0.152 0.592 0.616 1.132 1.39 1.621z" fill="#ca0987" data-fill-palette-color="accent"></path><path d="M113.599 280l-5.027-0.929 4.993-8.497-4.131-20.362 5.674 1.048 1.344 9.629 0.444 4.941 2.171-4.458 4.744-8.504 5.346 0.988z" fill="#ca0987" data-fill-palette-color="accent"></path><path d="M162.922 272.856l-5.239 0.858-4.679-28.567 14.913-2.443 0.738 4.503-9.674 1.585 1.229 7.505 8.444-1.383 0.752 4.59-8.444 1.383z" fill="#ca0987" data-fill-palette-color="accent"></path><path d="M207.439 256.98l-4.481 2.357-14.696-27.939 4.481-2.357z" fill="#ca0987" data-fill-palette-color="accent"></path><path d="M240.586 229.996v0c-1.57 1.711-3.197 2.762-4.879 3.153-1.682 0.392-3.34 0.282-4.973-0.329-1.624-0.611-3.141-1.565-4.553-2.86v0c-1.475-1.354-2.584-2.873-3.328-4.56-0.739-1.681-0.995-3.391-0.768-5.127 0.222-1.741 1.036-3.378 2.443-4.911v0c2.097-2.284 4.221-3.274 6.373-2.967 2.157 0.301 4.445 1.562 6.864 3.783v0c0.212 0.195 0.475 0.45 0.79 0.764 0.319 0.31 0.588 0.584 0.806 0.82v0l-8.427 9.181c1.258 1.039 2.512 1.564 3.762 1.575 1.251 0.011 2.442-0.6 3.575-1.833v0c0.58-0.631 1.063-1.439 1.452-2.424 0.384-0.98 0.535-1.826 0.454-2.54v0l4.027 1.445c-0.101 0.662-0.386 1.591-0.853 2.787-0.467 1.196-1.389 2.543-2.765 4.043zM228.515 224.776v0l4.943-5.386c-1.07-0.982-1.973-1.638-2.709-1.967-0.741-0.334-1.368-0.435-1.881-0.302-0.518 0.129-0.969 0.403-1.354 0.822v0c-0.951 1.036-1.28 2.168-0.987 3.397 0.293 1.228 0.956 2.374 1.988 3.436z" fill="#ca0987" data-fill-palette-color="accent"></path><path d="M264.071 190.93l-2.012 5.365-5.656-6.689-1.833-2.323-3.041 0.537-8.839 1.213 2.071-5.522 5.772-0.498 2.625-0.126-1.881-1.858-4.039-4.125 1.939-5.172 5.737 6.584 1.93 2.316 2.857-0.521 8.962-1.429-2.057 5.485-6.257 0.84-2.075 0.196 1.49 1.366z" fill="#ca0987" data-fill-palette-color="accent"></path><path d="M5.163 140.299c0-6.213 5.036-11.249 11.249-11.249 6.213 0 11.249 5.036 11.249 11.249 0 6.213-5.036 11.249-11.249 11.249-6.213 0-11.249-5.036-11.249-11.249z" fill="#ca0987" data-fill-palette-color="accent"></path><path d="M252.451 140.299c0-6.213 5.036-11.249 11.249-11.249 6.213 0 11.249 5.036 11.249 11.249 0 6.213-5.036 11.249-11.249 11.249-6.213 0-11.249-5.036-11.249-11.249z" fill="#ca0987" data-fill-palette-color="accent"></path></g><g id="text-1"></g></svg></g><defs></defs></svg><rect width="280" height="280" fill="none" stroke="none" visibility="hidden"></rect></g></svg></g></svg>